<svg width="100" height="100" viewBox="0 0 100 100" fill="none" xmlns="http://www.w3.org/2000/svg">
  <path fill-rule="evenodd" clip-rule="evenodd" d="M50 6.25C26.1243 6.25 6.25 26.1243 6.25 50C6.25 73.8757 26.1243 93.75 50 93.75C73.8757 93.75 93.75 73.8757 93.75 50C93.75 26.1243 73.8757 6.25 50 6.25ZM28.5388 31.25C36.2895 31.25 42.5776 37.5381 42.5776 45.2888C42.5776 53.0395 36.2895 59.3276 28.5388 59.3276C20.7881 59.3276 14.5 53.0395 14.5 45.2888C14.5 37.5381 20.7881 31.25 28.5388 31.25ZM71.3164 31.25C79.0671 31.25 85.3552 37.5381 85.3552 45.2888C85.3552 53.0395 79.0671 59.3276 71.3164 59.3276C63.5657 59.3276 57.2776 53.0395 57.2776 45.2888C57.2776 37.5381 63.5657 31.25 71.3164 31.25ZM50.0724 57.5C57.8231 57.5 64.1112 63.7881 64.1112 71.5388C64.1112 79.2895 57.8231 85.5776 50.0724 85.5776C42.3217 85.5776 36.0336 79.2895 36.0336 71.5388C36.0336 63.7881 42.3217 57.5 50.0724 57.5Z" fill="#FF88DC"/>
</svg>
