<svg width="100" height="100" viewBox="0 0 100 100" fill="none" xmlns="http://www.w3.org/2000/svg">
  <path d="M50 16.6667C58.4095 16.6667 65.2381 23.4953 65.2381 31.9048C65.2381 40.3143 58.4095 47.1429 50 47.1429C41.5905 47.1429 34.7619 40.3143 34.7619 31.9048C34.7619 23.4953 41.5905 16.6667 50 16.6667ZM50 77.381C58.4095 77.381 65.2381 70.5524 65.2381 62.1429C65.2381 53.7334 58.4095 46.9048 50 46.9048C41.5905 46.9048 34.7619 53.7334 34.7619 62.1429C34.7619 70.5524 41.5905 77.381 50 77.381Z" fill="#F44250"/>
  <path d="M19.0477 31.9048C27.4572 31.9048 34.2858 24.0762 34.2858 15.6667C34.2858 7.25717 27.4572 0.428574 19.0477 0.428574C10.6382 0.428574 3.80954 7.25717 3.80954 15.6667C3.80954 24.0762 10.6382 31.9048 19.0477 31.9048ZM19.0477 92.6191C27.4572 92.6191 34.2858 85.7905 34.2858 77.381C34.2858 68.9715 27.4572 62.1429 19.0477 62.1429C10.6382 62.1429 3.80954 68.9715 3.80954 77.381C3.80954 85.7905 10.6382 92.6191 19.0477 92.6191Z" fill="#121212"/>
  <path d="M80.9523 31.9048C89.3618 31.9048 96.1904 24.0762 96.1904 15.6667C96.1904 7.25717 89.3618 0.428574 80.9523 0.428574C72.5428 0.428574 65.7142 7.25717 65.7142 15.6667C65.7142 24.0762 72.5428 31.9048 80.9523 31.9048ZM80.9523 92.6191C89.3618 92.6191 96.1904 85.7905 96.1904 77.381C96.1904 68.9715 89.3618 62.1429 80.9523 62.1429C72.5428 62.1429 65.7142 68.9715 65.7142 77.381C65.7142 85.7905 72.5428 92.6191 80.9523 92.6191Z" fill="#121212"/>
</svg>
